<svg aria-hidden="true" style="position: absolute; width: 0; height: 0; overflow: hidden;" version="1.1" xmlns="http://www.w3.org/2000/svg" xmlns:xlink="http://www.w3.org/1999/xlink">
<defs>

<symbol id="icon-ecosolution" viewBox="0 0 216 32">
 <path d="M12.461 31.269c-6.589 0-11.236-4.646-11.236-10.982s4.646-10.982 11.236-10.982c6.589 0 11.151 4.646 11.151 10.982v1.647h-17.572c0.634 3.337 3.168 5.153 6.42 5.153 2.45 0 4.224-0.718 5.364-2.281h4.942c-1.605 3.928-5.407 6.463-10.307 6.463zM6.167 18.090h12.63c-0.803-3.041-3.295-4.604-6.336-4.604-3.126 0-5.491 1.605-6.294 4.604zM35.603 31.269c-6.589 0-11.236-4.646-11.236-10.982s4.646-10.982 11.236-10.982c5.619 0 9.757 3.379 10.813 8.237h-4.604c-0.972-2.408-3.21-4.013-6.208-4.013-3.972 0-6.633 2.83-6.633 6.758s2.662 6.758 6.632 6.758c2.999 0 5.238-1.605 6.209-4.013h4.604c-1.056 4.858-5.196 8.237-10.813 8.237zM58.417 31.269c-6.589 0-11.236-4.646-11.236-10.982s4.646-10.982 11.236-10.982c6.589 0 11.236 4.646 11.236 10.982s-4.646 10.982-11.236 10.982zM58.417 27.045c3.971 0 6.589-2.83 6.589-6.758s-2.619-6.758-6.589-6.758-6.632 2.83-6.632 6.758c0 3.928 2.661 6.758 6.632 6.758zM79.191 31.269c-5.279 0-8.616-2.83-8.742-6.674h4.604c0.084 1.563 1.478 2.619 4.14 2.619 2.788 0 4.096-1.183 4.096-2.619 0-1.774-1.984-1.985-4.434-2.323-3.379-0.422-7.983-1.056-7.983-5.998 0-4.182 3.251-6.97 8.279-6.97 5.027 0 8.152 2.872 8.237 6.505h-4.52c-0.128-1.436-1.436-2.45-3.675-2.45-2.408 0-3.717 1.14-3.717 2.577 0 1.774 2.070 1.985 4.435 2.323 3.21 0.422 7.983 1.014 7.983 5.998 0 4.224-3.421 7.012-8.701 7.012zM99.959 31.269c-6.589 0-11.236-4.646-11.236-10.982s4.646-10.982 11.236-10.982c6.589 0 11.236 4.646 11.236 10.982s-4.646 10.982-11.236 10.982zM99.959 27.045c3.971 0 6.589-2.83 6.589-6.758s-2.619-6.758-6.589-6.758-6.632 2.83-6.632 6.758c0 3.928 2.661 6.758 6.63 6.758zM113.51 30.72v-29.99h4.562v29.99h-4.562zM131.599 31.269c-6.168 0-10.307-3.548-10.307-10.56v-10.856h4.561v10.856c0 4.224 2.282 6.336 5.746 6.336s5.745-2.112 5.745-6.336v-10.856h4.562v10.856c0 6.97-4.14 10.56-10.307 10.56zM152.8 31.269c-5.027 0-8.448-2.788-8.448-8.532v-20.275h4.562v7.392h11.109v4.14h-11.109v8.744c0 3.041 1.563 4.308 3.886 4.308s3.928-1.225 3.928-4.308v-0.507h4.52v0.507c0 5.745-3.421 8.532-8.448 8.532zM165.875 6.897c-1.774 0-3.084-1.352-3.084-3.126s1.309-3.126 3.084-3.126 3.084 1.352 3.084 3.126c0 1.774-1.309 3.126-3.084 3.126zM163.552 30.72v-20.867h4.562v20.867h-4.562zM181.683 31.269c-6.589 0-11.236-4.646-11.236-10.982s4.646-10.982 11.236-10.982c6.589 0 11.236 4.646 11.236 10.982s-4.646 10.982-11.236 10.982zM181.683 27.045c3.971 0 6.589-2.83 6.589-6.758s-2.619-6.758-6.589-6.758-6.632 2.83-6.632 6.758c0 3.928 2.661 6.758 6.632 6.758zM194.518 30.72v-10.856c0-6.97 4.14-10.56 10.307-10.56s10.307 3.548 10.307 10.56v10.856h-4.562v-10.856c0-4.224-2.281-6.336-5.745-6.336s-5.745 2.112-5.745 6.336v10.856h-4.562z"></path>
</symbol>

<symbol id="icon-sms" viewBox="0 0 32 32"> 
 <path fill="none" stroke-width="2" stroke-miterlimit="10" stroke-linecap="round" stroke-linejoin="round" d="M22.667 27.333h-13.333c-4 0-6.667-2-6.667-6.667v-9.333c0-4.667 2.667-6.667 6.667-6.667h13.333c4 0 6.667 2 6.667 6.667v9.333c0 4.667-2.667 6.667-6.667 6.667z"></path>
 <path fill="none" stroke-width="2" stroke-miterlimit="10" stroke-linecap="round" stroke-linejoin="round" d="M22.667 12l-4.173 3.333c-1.373 1.093-3.627 1.093-5 0l-4.16-3.333"></path>
</symbol>

<symbol id="icon-small-arrow" viewBox="0 0 36 32">
 <path fill="none" stroke-width="2.9653" stroke-miterlimit="10" stroke-linecap="round" stroke-linejoin="round" d="M25.87 18.88l-8.092 7.193-8.096-7.193M17.778 5.927v19.947"></path>
</symbol>

<symbol id="icon-responsibility" viewBox="0 0 32 32">
 <path stroke-width="2" stroke-miterlimit="4" stroke-linecap="round" stroke-linejoin="round" d="M29.334 16c-0.003-7.363-5.971-13.331-13.334-13.334h-0c-7.363 0.003-13.331 5.971-13.334 13.334v0c0.003 7.363 5.971 13.331 13.334 13.334h0"></path>
 <path stroke-width="2" stroke-miterlimit="4" stroke-linecap="round" stroke-linejoin="round" d="M10.666 4h1.334c-1.236 3.581-1.95 7.707-1.95 12s0.714 8.419 2.029 12.267l-0.079-0.267h-1.334M20 4c1.294 3.894 1.946 7.946 1.946 12"></path>
 <path stroke-width="2" stroke-miterlimit="4" stroke-linecap="round" stroke-linejoin="round" d="M4 21.334v-1.334c3.894 1.294 7.946 1.946 12 1.946M4 12c7.786-2.6 16.214-2.6 24 0"></path>
 <path stroke-width="2" stroke-miterlimit="10" stroke-linecap="round" stroke-linejoin="round" d="M25.614 20.986l-4.72 4.72c-0.196 0.213-0.337 0.481-0.398 0.777l-0.002 0.011-0.254 1.8c-0.094 0.652 0.36 1.106 1.014 1.012l1.8-0.252c0.307-0.060 0.574-0.202 0.787-0.401l-0.001 0.001 4.72-4.72c0.814-0.814 1.2-1.76 0-2.96-1.186-1.188-2.134-0.8-2.946 0.012z"></path>
 <path stroke-width="2" stroke-miterlimit="10" stroke-linecap="round" stroke-linejoin="round" d="M24.934 21.666c0.4 1.44 1.52 2.56 2.96 2.96"></path>
</symbol>

<symbol id="icon-quality" viewBox="0 0 32 32">
 <path stroke-width="2" stroke-miterlimit="10" stroke-linecap="round" stroke-linejoin="round" d="M11.56 18.666h-6.226c-1.468 0-2.668 1.2-2.668 2.668v8h8.894v-10.668z"></path>
 <path stroke-width="2" stroke-miterlimit="10" stroke-linecap="round" stroke-linejoin="round" d="M17.774 13.334h-3.56c-1.468 0-2.668 1.2-2.668 2.666v13.334h8.894v-13.334c0-1.466-1.186-2.666-2.666-2.666zM26.666 22.666h-6.226v6.668h8.894v-4c0-1.468-1.2-2.668-2.668-2.668z"></path>
 <path stroke-width="2" stroke-miterlimit="4" stroke-linecap="round" stroke-linejoin="round" d="M16.694 2.76l0.706 1.414c0.094 0.2 0.346 0.386 0.56 0.412l1.28 0.214c0.814 0.134 1.014 0.734 0.426 1.306l-1 1c-0.139 0.151-0.224 0.354-0.224 0.576 0 0.051 0.004 0.101 0.013 0.149l-0.001-0.005 0.28 1.228c0.226 0.972-0.294 1.346-1.148 0.84l-1.2-0.708c-0.114-0.063-0.249-0.1-0.393-0.1s-0.279 0.037-0.397 0.102l0.004-0.002-1.2 0.708c-0.854 0.506-1.374 0.132-1.146-0.84l0.28-1.228c0.008-0.044 0.013-0.094 0.013-0.146 0-0.222-0.086-0.424-0.227-0.575l0 0-0.986-0.986c-0.588-0.586-0.4-1.174 0.426-1.306l1.28-0.214c0.24-0.058 0.438-0.208 0.558-0.41l0.002-0.004 0.706-1.412c0.388-0.774 1-0.774 1.388-0.014z"></path>
</symbol>

<symbol id="icon-plus" viewBox="0 0 32 32">
 <path stroke-width="3" stroke-miterlimit="4" stroke-linecap="round" stroke-linejoin="round" style="stroke: var(--color1, #97d28b)" d="M8 16h16M16 24v-16"></path>
</symbol>

<symbol id="icon-openness" viewBox="0 0 32 32">
 <path stroke-width="2" stroke-miterlimit="4" stroke-linecap="round" stroke-linejoin="round" d="M22.666 4h5.334v5.334M20 12l8-8M9.334 28h-5.334v-5.334M12 20l-8 8M18.694 2.934c-0.81-0.17-1.74-0.267-2.693-0.268h-0.001c-7.365 0.003-13.334 5.975-13.334 13.34 0 0.942 0.098 1.86 0.283 2.747l-0.015-0.087M13.306 29.066c0.868 0.174 1.774 0.268 2.694 0.268 7.365-0.003 13.334-5.975 13.334-13.34 0-0.942-0.098-1.86-0.283-2.747l0.015 0.087"></path>
</symbol>

<symbol id="icon-minus" viewBox="0 0 32 32">
 <path stroke-width="3" stroke-miterlimit="4" stroke-linecap="round" stroke-linejoin="round" d="M8 16h16"></path>
</symbol>

<symbol id="icon-menu" viewBox="0 0 30 32">
 <path stroke-width="1.8824" stroke-miterlimit="4" stroke-linecap="round" stroke-linejoin="miter" d="M3.765 9.726h22.588M3.765 16h22.588M3.765 22.274h22.588"></path>
</symbol>

<symbol id="icon-map" viewBox="0 0 32 32">
 <path stroke-width="2" stroke-miterlimit="4" stroke-linecap="round" stroke-linejoin="round" d="M3.053 10.373v12.973c0 2.533 1.8 3.573 3.987 2.32l3.133-1.787c0.68-0.387 1.813-0.427 2.52-0.067l7 3.507c0.707 0.347 1.84 0.32 2.52-0.067l5.773-3.307c0.733-0.427 1.347-1.467 1.347-2.32v-12.973c0-2.533-1.8-3.573-3.987-2.32l-3.133 1.787c-0.68 0.387-1.813 0.427-2.52 0.067l-7-3.493c-0.707-0.347-1.84-0.32-2.52 0.067l-5.773 3.307c-0.747 0.427-1.347 1.467-1.347 2.307zM11.413 5.333v17.333M20.973 8.827v17.84"></path>
</symbol>

<symbol id="icon-logo" viewBox="0 0 55 32">
 <path fill="#173d33" d="M37.92 22.772c-0.116-0.272-9.584-18.773-9.739-19.029-0.346-0.801-0.828-1.483-1.423-2.045l-0.003-0.003c-0.595-0.563-1.305-1.011-2.091-1.303l-0.043-0.014c-0.636-0.238-1.37-0.376-2.137-0.376-1.016 0-1.975 0.242-2.823 0.672l0.036-0.016c-0.757 0.379-1.428 0.907-1.968 1.55-0.883 1.039-1.421 2.397-1.421 3.879 0 1.161 0.33 2.246 0.9 3.165l-0.015-0.026c0.116 0.274 9.177 17.982 9.333 18.236 0.114 0.274 0.249 0.539 0.405 0.793 0.327 0.773 0.811 1.47 1.422 2.050 0.596 0.563 1.307 1.010 2.094 1.302l0.043 0.014c0.636 0.238 1.37 0.376 2.137 0.376 1.016 0 1.975-0.242 2.823-0.672l-0.036 0.016c0.757-0.377 1.428-0.907 1.97-1.55 0.883-1.039 1.42-2.397 1.42-3.88 0-1.161-0.329-2.246-0.9-3.165l0.015 0.026z"></path>
 <path fill="#97d28b" d="M26.987 10.252c0.58-0.61 1.026-1.332 1.312-2.119 0.227-0.608 0.358-1.311 0.358-2.044 0-1.027-0.258-1.994-0.712-2.84l0.016 0.032c-0.406-0.761-0.939-1.4-1.578-1.914l-0.012-0.009c-1.057-0.844-2.413-1.354-3.888-1.354-1.194 0-2.31 0.334-3.259 0.915l0.027-0.016c-0.73 0.447-1.34 1.016-1.818 1.686l-0.013 0.019c-0.204 0.213-15.577 18.898-15.748 19.138-0.563 0.59-1.010 1.296-1.3 2.079l-0.014 0.042c-0.227 0.608-0.358 1.31-0.358 2.043 0 1.027 0.258 1.993 0.712 2.839l-0.016-0.032c0.389 0.743 0.932 1.397 1.589 1.924 1.057 0.844 2.413 1.355 3.888 1.355 1.194 0 2.31-0.335 3.26-0.916l-0.027 0.016c0.73-0.447 1.34-1.016 1.818-1.686l0.013-0.019c0.204-0.213 15.577-18.898 15.748-19.138zM53.44 10.252c0.58-0.61 1.028-1.333 1.312-2.119 0.227-0.609 0.359-1.312 0.359-2.046 0-1.026-0.257-1.992-0.711-2.838l0.016 0.032c-0.406-0.761-0.94-1.401-1.579-1.914l-0.012-0.009c-1.057-0.844-2.413-1.354-3.888-1.354-1.194 0-2.31 0.334-3.259 0.915l0.027-0.016c-0.73 0.447-1.34 1.016-1.818 1.686l-0.013 0.019c-0.203 0.213-15.577 18.898-15.748 19.138-0.562 0.59-1.009 1.295-1.298 2.077l-0.014 0.042c-0.228 0.609-0.36 1.313-0.36 2.048 0 1.025 0.257 1.991 0.71 2.836l-0.016-0.032c0.391 0.741 0.933 1.397 1.593 1.924 1.057 0.844 2.413 1.354 3.888 1.354 1.194 0 2.31-0.334 3.259-0.915l-0.027 0.016c0.73-0.447 1.34-1.016 1.818-1.686l0.013-0.019c0.203-0.213 15.577-18.898 15.748-19.138z"></path>
</symbol>

<symbol id="icon-instagram" viewBox="0 0 32 32">
 <path stroke-width="2" stroke-miterlimit="4" stroke-linecap="round" stroke-linejoin="round" d="M12 29.333h8c6.667 0 9.333-2.667 9.333-9.333v-8c0-6.667-2.667-9.333-9.333-9.333h-8c-6.667 0-9.333 2.667-9.333 9.333v8c0 6.667 2.667 9.333 9.333 9.333z"></path>
 <path stroke-width="2" stroke-miterlimit="4" stroke-linecap="round" stroke-linejoin="round" d="M16 20.667c2.577 0 4.667-2.089 4.667-4.667s-2.089-4.667-4.667-4.667v0c-2.577 0-4.667 2.089-4.667 4.667s2.089 4.667 4.667 4.667v0z"></path>
 <path stroke-width="2.6667" stroke-miterlimit="4" stroke-linecap="round" stroke-linejoin="round" d="M23.515 9.333h0.016"></path>
</symbol>

<symbol id="icon-innovation" viewBox="0 0 32 32">
 <path stroke-width="2" stroke-miterlimit="4" stroke-linecap="round" stroke-linejoin="round" d="M12.8 26.666h6.4c5.334 0 7.466-2.132 7.466-7.466v-6.4c0-5.334-2.132-7.466-7.466-7.466h-6.4c-5.334 0-7.466 2.132-7.466 7.466v6.4c0 5.334 2.132 7.466 7.466 7.466z"></path>
 <path stroke-width="2" stroke-miterlimit="4" stroke-linecap="round" stroke-linejoin="round" d="M14 22.666h4c3.334 0 4.666-1.332 4.666-4.666v-4c0-3.334-1.332-4.666-4.666-4.666h-4c-3.334 0-4.666 1.332-4.666 4.666v4c0 3.334 1.332 4.666 4.666 4.666zM10.68 5.334v-2.668M16 5.334v-2.668M21.334 5.334v-2.668M26.666 10.666h2.668M26.666 16h2.668M26.666 21.334h2.668M21.334 26.666v2.668M16.014 26.666v2.668M10.68 26.666v2.668M2.666 10.666h2.668M2.666 16h2.668M2.666 21.334h2.668"></path>
 <path stroke-width="2" stroke-miterlimit="4" stroke-linecap="round" stroke-linejoin="round" d="M16 12.934l-1.254 2.186c-0.28 0.48-0.052 0.88 0.508 0.88h1.492c0.56 0 0.788 0.4 0.508 0.88l-1.254 2.186"></path>
</symbol>

<symbol id="icon-greenercy" viewBox="0 0 105 32">
 <path fill="#97d28b" style="fill: var(--color1, #97d28b)" d="M7.004 14.471c-1.943 0-3.419-0.61-4.427-1.831s-1.511-2.809-1.511-4.764c0-0.901 0.112-1.737 0.338-2.507 0.236-0.782 0.581-1.481 1.031-2.098 0.478-0.636 1.1-1.138 1.819-1.464l0.029-0.012c0.77-0.356 1.653-0.533 2.649-0.533 1.364 0 2.476 0.32 3.342 0.96 0.866 0.628 1.458 1.541 1.778 2.738l-1.618 0.338c-0.533-1.694-1.694-2.542-3.484-2.542-1.339 0-2.382 0.457-3.129 1.369s-1.12 2.181-1.12 3.804c0 1.636 0.379 2.898 1.138 3.787 0.759 0.876 1.826 1.316 3.2 1.316 1.15 0 2.044-0.284 2.684-0.853 0.652-0.569 0.978-1.257 0.978-2.062v-1.333h-3.538v-1.351h5.084v2.418c0 1.316-0.457 2.418-1.369 3.307-0.912 0.876-2.204 1.316-3.876 1.316zM14.56 14.222v-12.693h4.658c1.339 0 2.388 0.325 3.147 0.978 0.757 0.64 1.138 1.534 1.138 2.684 0 0.924-0.256 1.694-0.764 2.311-0.51 0.604-1.234 1.001-2.169 1.191l3.093 5.529h-1.884l-2.809-5.298h-2.773v5.298h-1.636zM16.196 7.449h2.969c0.841 0 1.493-0.19 1.956-0.569 0.473-0.379 0.711-0.907 0.711-1.582 0-1.552-0.901-2.329-2.702-2.329h-2.933v4.48zM25.808 14.222v-12.693h8.569v1.44h-6.933v4.107h5.742v1.44h-5.742v4.267h6.951v1.44h-8.587zM36.555 14.222v-12.693h8.569v1.44h-6.933v4.107h5.742v1.44h-5.742v4.267h6.951v1.44h-8.587zM47.301 14.222v-12.693h1.973l5.831 8.693 0.96 1.529h0.178l-0.018-2.436v-7.787h1.582v12.693h-1.884l-5.636-8.338-1.227-1.884h-0.16l0.018 2.418v7.804h-1.618z"></path>
 <path fill="#173d33" style="fill: var(--color2, #173d33)" d="M60.88 14.222v-12.693h8.569v1.44h-6.933v4.107h5.742v1.44h-5.742v4.267h6.951v1.44h-8.587zM71.628 14.222v-12.693h4.658c1.339 0 2.388 0.325 3.147 0.978 0.759 0.64 1.138 1.534 1.138 2.684 0 0.924-0.254 1.694-0.764 2.311-0.51 0.604-1.234 1.001-2.169 1.191l3.092 5.529h-1.884l-2.809-5.298h-2.773v5.298h-1.636zM73.264 7.449h2.969c0.841 0 1.493-0.19 1.956-0.569 0.475-0.379 0.711-0.907 0.711-1.582 0-1.552-0.901-2.329-2.702-2.329h-2.933v4.48zM87.998 14.471c-1.943 0-3.419-0.61-4.427-1.831-1.006-1.221-1.511-2.809-1.511-4.764 0-0.901 0.114-1.737 0.338-2.507 0.238-0.782 0.581-1.481 1.031-2.098 0.478-0.636 1.1-1.138 1.819-1.464l0.029-0.012c0.772-0.356 1.653-0.533 2.649-0.533 1.364 0 2.478 0.32 3.342 0.96 0.866 0.628 1.458 1.541 1.778 2.738l-1.618 0.338c-0.533-1.694-1.694-2.542-3.484-2.542-1.339 0-2.382 0.457-3.129 1.369s-1.12 2.181-1.12 3.804c0 1.636 0.38 2.898 1.138 3.787 0.759 0.876 1.826 1.316 3.2 1.316 1.15 0 2.044-0.284 2.684-0.853 0.652-0.569 0.978-1.257 0.978-2.062v-1.333h-3.538v-1.351h5.084v2.418c0 1.316-0.455 2.418-1.369 3.307-0.912 0.876-2.204 1.316-3.876 1.316zM98.459 14.222v-4.498l-4.569-8.196h1.902l3.467 6.596 3.484-6.596h1.884l-4.533 8.196v4.498h-1.636zM1.884 30.222v-12.693h8.32v1.44h-6.684v4.409h5.547v1.458h-5.547v5.387h-1.636zM16.988 30.471c-1.884 0-3.36-0.635-4.427-1.902-1.054-1.268-1.582-2.839-1.582-4.711s0.54-3.436 1.618-4.693c1.092-1.268 2.555-1.902 4.391-1.902 1.838 0 3.301 0.635 4.391 1.902 1.092 1.268 1.636 2.832 1.636 4.693 0 1.872-0.533 3.444-1.6 4.711-1.054 1.268-2.53 1.902-4.427 1.902zM16.988 29.013c1.328 0 2.382-0.468 3.164-1.404 0.795-0.937 1.191-2.187 1.191-3.751 0-1.552-0.396-2.796-1.191-3.733-0.793-0.96-1.849-1.44-3.164-1.44-1.291 0-2.34 0.48-3.147 1.44-0.793 0.937-1.191 2.181-1.191 3.733 0 1.564 0.391 2.814 1.173 3.751 0.795 0.937 1.849 1.404 3.164 1.404zM25.22 30.222v-12.693h4.658c1.339 0 2.388 0.325 3.147 0.978 0.757 0.64 1.138 1.534 1.138 2.684 0 0.924-0.256 1.694-0.764 2.311-0.51 0.604-1.234 1.001-2.169 1.191l3.093 5.529h-1.884l-2.809-5.298h-2.773v5.298h-1.636zM26.855 23.449h2.969c0.841 0 1.493-0.19 1.956-0.569 0.473-0.379 0.711-0.907 0.711-1.582 0-1.552-0.901-2.329-2.702-2.329h-2.933v4.48zM40.551 30.222v-12.693h1.636v11.236h6.667v1.458h-8.302zM50.533 30.222v-12.693h1.636v12.693h-1.636zM55.239 30.222v-12.693h8.32v1.44h-6.684v4.409h5.547v1.458h-5.547v5.387h-1.636zM65.362 30.222v-12.693h8.569v1.44h-6.933v4.107h5.742v1.44h-5.742v4.267h6.951v1.44h-8.587z"></path>
</symbol>

<symbol id="icon-full-logo" viewBox="0 0 215 32">
 <path fill="#97d28b" style="fill: var(--color1, #97d28b)" d="M170.352 17.712c-0.874 0-1.538-0.274-1.992-0.824s-0.68-1.264-0.68-2.144c0-0.406 0.050-0.782 0.152-1.128 0.106-0.352 0.262-0.666 0.464-0.944 0.208-0.282 0.486-0.504 0.832-0.664s0.744-0.24 1.192-0.24c0.614 0 1.114 0.144 1.504 0.432 0.39 0.282 0.656 0.694 0.8 1.232l-0.728 0.152c-0.24-0.762-0.762-1.144-1.568-1.144-0.602 0-1.072 0.206-1.408 0.616s-0.504 0.982-0.504 1.712c0 0.736 0.17 1.304 0.512 1.704 0.342 0.394 0.822 0.592 1.44 0.592 0.518 0 0.92-0.128 1.208-0.384 0.294-0.256 0.44-0.566 0.44-0.928v-0.6h-1.592v-0.608h2.288v1.088c0 0.592-0.206 1.088-0.616 1.488-0.41 0.394-0.992 0.592-1.744 0.592zM173.751 17.6v-5.712h2.096c0.603 0 1.075 0.146 1.416 0.44 0.342 0.288 0.512 0.69 0.512 1.208 0 0.416-0.114 0.762-0.344 1.040-0.229 0.272-0.554 0.45-0.976 0.536l1.392 2.488h-0.848l-1.264-2.384h-1.248v2.384h-0.736zM174.487 14.552h1.336c0.379 0 0.672-0.086 0.88-0.256 0.214-0.17 0.32-0.408 0.32-0.712 0-0.698-0.405-1.048-1.216-1.048h-1.32v2.016zM178.814 17.6v-5.712h3.856v0.648h-3.12v1.848h2.584v0.648h-2.584v1.92h3.128v0.648h-3.864zM183.65 17.6v-5.712h3.856v0.648h-3.12v1.848h2.584v0.648h-2.584v1.92h3.128v0.648h-3.864zM188.486 17.6v-5.712h0.888l2.624 3.912 0.432 0.688h0.080l-0.008-1.096v-3.504h0.712v5.712h-0.848l-2.536-3.752-0.552-0.848h-0.072l0.008 1.088v3.512h-0.728z"></path>
 <path fill="#173d33" style="fill: var(--color2, #173d33)" d="M194.597 17.6v-5.712h3.856v0.648h-3.12v1.848h2.584v0.648h-2.584v1.92h3.128v0.648h-3.864zM199.433 17.6v-5.712h2.096c0.602 0 1.074 0.146 1.416 0.44 0.342 0.288 0.512 0.69 0.512 1.208 0 0.416-0.114 0.762-0.344 1.040-0.23 0.272-0.554 0.45-0.976 0.536l1.392 2.488h-0.848l-1.264-2.384h-1.248v2.384h-0.736zM200.169 14.552h1.336c0.378 0 0.672-0.086 0.88-0.256 0.214-0.17 0.32-0.408 0.32-0.712 0-0.698-0.406-1.048-1.216-1.048h-1.32v2.016zM206.799 17.712c-0.874 0-1.538-0.274-1.992-0.824s-0.68-1.264-0.68-2.144c0-0.406 0.051-0.782 0.152-1.128 0.107-0.352 0.262-0.666 0.464-0.944 0.208-0.282 0.486-0.504 0.832-0.664s0.744-0.24 1.192-0.24c0.614 0 1.115 0.144 1.504 0.432 0.39 0.282 0.656 0.694 0.8 1.232l-0.728 0.152c-0.24-0.762-0.762-1.144-1.568-1.144-0.602 0-1.072 0.206-1.408 0.616s-0.504 0.982-0.504 1.712c0 0.736 0.171 1.304 0.512 1.704 0.342 0.394 0.822 0.592 1.44 0.592 0.518 0 0.92-0.128 1.208-0.384 0.294-0.256 0.44-0.566 0.44-0.928v-0.6h-1.592v-0.608h2.288v1.088c0 0.592-0.205 1.088-0.616 1.488-0.41 0.394-0.992 0.592-1.744 0.592zM211.506 17.6v-2.024l-2.056-3.688h0.856l1.56 2.968 1.568-2.968h0.848l-2.040 3.688v2.024h-0.736zM168.048 24.8v-5.712h3.744v0.648h-3.008v1.984h2.496v0.656h-2.496v2.424h-0.736zM174.845 24.912c-0.848 0-1.512-0.286-1.992-0.856-0.474-0.57-0.712-1.278-0.712-2.12s0.243-1.546 0.728-2.112c0.491-0.57 1.15-0.856 1.976-0.856s1.486 0.286 1.976 0.856c0.491 0.57 0.736 1.274 0.736 2.112 0 0.842-0.24 1.55-0.72 2.12-0.474 0.57-1.138 0.856-1.992 0.856zM174.845 24.256c0.598 0 1.072-0.21 1.424-0.632 0.358-0.422 0.536-0.984 0.536-1.688 0-0.698-0.178-1.258-0.536-1.68-0.357-0.432-0.832-0.648-1.424-0.648-0.581 0-1.053 0.216-1.416 0.648-0.357 0.422-0.536 0.982-0.536 1.68 0 0.704 0.176 1.266 0.528 1.688 0.358 0.422 0.832 0.632 1.424 0.632zM178.549 24.8v-5.712h2.096c0.602 0 1.074 0.146 1.416 0.44 0.341 0.288 0.512 0.69 0.512 1.208 0 0.416-0.115 0.762-0.344 1.040-0.23 0.272-0.555 0.45-0.976 0.536l1.392 2.488h-0.848l-1.264-2.384h-1.248v2.384h-0.736zM179.285 21.752h1.336c0.378 0 0.672-0.086 0.88-0.256 0.213-0.17 0.32-0.408 0.32-0.712 0-0.698-0.406-1.048-1.216-1.048h-1.32v2.016zM185.448 24.8v-5.712h0.736v5.056h3v0.656h-3.736zM189.94 24.8v-5.712h0.736v5.712h-0.736zM192.058 24.8v-5.712h3.744v0.648h-3.008v1.984h2.496v0.656h-2.496v2.424h-0.736zM196.613 24.8v-5.712h3.856v0.648h-3.12v1.848h2.584v0.648h-2.584v1.92h3.128v0.648h-3.864zM35.788 25.143c-4.118 0-7.022-2.904-7.022-6.864s2.904-6.864 7.022-6.864c4.118 0 6.97 2.904 6.97 6.864v1.030h-10.982c0.396 2.086 1.98 3.221 4.013 3.221 1.531 0 2.64-0.449 3.353-1.426h3.089c-1.003 2.455-3.379 4.039-6.442 4.039zM31.854 16.906h7.894c-0.502-1.901-2.059-2.878-3.96-2.878-1.954 0-3.432 1.003-3.934 2.878zM50.252 25.143c-4.118 0-7.022-2.904-7.022-6.864s2.904-6.864 7.022-6.864c3.512 0 6.098 2.112 6.758 5.148h-2.878c-0.607-1.505-2.006-2.508-3.88-2.508-2.482 0-4.146 1.769-4.146 4.224s1.664 4.224 4.145 4.224c1.874 0 3.274-1.003 3.881-2.508h2.878c-0.66 3.036-3.247 5.148-6.758 5.148zM64.51 25.143c-4.118 0-7.022-2.904-7.022-6.864s2.904-6.864 7.022-6.864c4.118 0 7.022 2.904 7.022 6.864s-2.904 6.864-7.022 6.864zM64.51 22.503c2.482 0 4.118-1.769 4.118-4.224s-1.637-4.224-4.118-4.224-4.145 1.769-4.145 4.224c0 2.455 1.663 4.224 4.145 4.224zM77.494 25.143c-3.299 0-5.385-1.769-5.464-4.171h2.878c0.053 0.977 0.924 1.637 2.587 1.637 1.742 0 2.561-0.739 2.561-1.637 0-1.109-1.241-1.241-2.772-1.452-2.112-0.264-4.99-0.66-4.99-3.749 0-2.614 2.032-4.356 5.174-4.356s5.095 1.795 5.148 4.066h-2.825c-0.080-0.898-0.898-1.531-2.297-1.531-1.505 0-2.323 0.713-2.323 1.61 0 1.109 1.294 1.241 2.772 1.452 2.006 0.264 4.99 0.634 4.99 3.749 0 2.64-2.138 4.382-5.438 4.382zM90.474 25.143c-4.118 0-7.022-2.904-7.022-6.864s2.904-6.864 7.022-6.864c4.118 0 7.022 2.904 7.022 6.864s-2.904 6.864-7.022 6.864zM90.474 22.503c2.482 0 4.118-1.769 4.118-4.224s-1.637-4.224-4.118-4.224-4.145 1.769-4.145 4.224c0 2.455 1.663 4.224 4.145 4.224zM98.945 24.8v-18.744h2.851v18.744h-2.851zM110.25 25.143c-3.854 0-6.442-2.218-6.442-6.6v-6.785h2.851v6.785c0 2.64 1.426 3.96 3.59 3.96s3.59-1.32 3.59-3.96v-6.785h2.851v6.785c0 4.356-2.587 6.6-6.442 6.6zM123.5 25.143c-3.142 0-5.28-1.742-5.28-5.333v-12.672h2.851v4.62h6.943v2.587h-6.943v5.465c0 1.901 0.977 2.693 2.429 2.693s2.455-0.766 2.455-2.693v-0.317h2.825v0.317c0 3.59-2.138 5.333-5.28 5.333zM131.672 9.91c-1.109 0-1.927-0.845-1.927-1.954s0.818-1.954 1.927-1.954 1.927 0.845 1.927 1.954c0 1.109-0.818 1.954-1.927 1.954zM130.22 24.8v-13.042h2.851v13.042h-2.851zM141.552 25.143c-4.118 0-7.022-2.904-7.022-6.864s2.904-6.864 7.022-6.864c4.118 0 7.022 2.904 7.022 6.864s-2.904 6.864-7.022 6.864zM141.552 22.503c2.482 0 4.118-1.769 4.118-4.224s-1.637-4.224-4.118-4.224-4.145 1.769-4.145 4.224c0 2.455 1.663 4.224 4.145 4.224zM149.574 24.8v-6.785c0-4.356 2.587-6.6 6.442-6.6s6.442 2.218 6.442 6.6v6.785h-2.851v-6.785c0-2.64-1.426-3.96-3.59-3.96s-3.59 1.32-3.59 3.96v6.785h-2.851z"></path>
 <path fill="#173d33" style="fill: var(--color2, #173d33)" d="M17.064 21.447c-0.052-0.123-4.313-8.448-4.382-8.563-0.156-0.361-0.372-0.667-0.64-0.92l-0.001-0.001c-0.268-0.253-0.588-0.455-0.942-0.587l-0.019-0.006c-0.286-0.107-0.617-0.169-0.962-0.169-0.457 0-0.889 0.109-1.27 0.302l0.016-0.007c-0.341 0.17-0.642 0.408-0.886 0.698-0.397 0.468-0.639 1.079-0.639 1.746 0 0.523 0.148 1.011 0.405 1.424l-0.007-0.012c0.052 0.123 4.13 8.092 4.2 8.206 0.051 0.123 0.112 0.242 0.182 0.357 0.147 0.348 0.365 0.662 0.64 0.922 0.268 0.253 0.588 0.454 0.942 0.586l0.019 0.006c0.286 0.107 0.617 0.169 0.962 0.169 0.457 0 0.889-0.109 1.271-0.302l-0.016 0.007c0.341-0.17 0.642-0.408 0.886-0.698 0.397-0.468 0.639-1.079 0.639-1.746 0-0.523-0.148-1.011-0.405-1.424l0.007 0.012z"></path>
 <path fill="#97d28b" style="fill: var(--color1, #97d28b)" d="M12.144 15.814c0.261-0.274 0.462-0.599 0.59-0.954 0.102-0.274 0.161-0.59 0.161-0.92 0-0.462-0.116-0.897-0.32-1.278l0.007 0.014c-0.183-0.342-0.422-0.63-0.71-0.861l-0.005-0.004c-0.476-0.38-1.086-0.609-1.75-0.609-0.537 0-1.040 0.15-1.467 0.412l0.012-0.007c-0.329 0.201-0.603 0.457-0.818 0.759l-0.006 0.008c-0.092 0.096-7.010 8.504-7.086 8.612-0.253 0.265-0.454 0.583-0.585 0.935l-0.006 0.019c-0.102 0.274-0.161 0.59-0.161 0.92 0 0.462 0.116 0.897 0.32 1.278l-0.007-0.014c0.175 0.334 0.419 0.629 0.715 0.866 0.476 0.38 1.086 0.61 1.749 0.61 0.537 0 1.040-0.151 1.467-0.412l-0.012 0.007c0.329-0.201 0.603-0.457 0.818-0.759l0.006-0.008c0.092-0.096 7.010-8.504 7.086-8.612zM24.048 15.814c0.261-0.274 0.462-0.6 0.59-0.954 0.102-0.274 0.162-0.59 0.162-0.921 0-0.462-0.116-0.897-0.32-1.277l0.007 0.014c-0.183-0.342-0.423-0.63-0.711-0.861l-0.005-0.004c-0.476-0.38-1.086-0.61-1.75-0.61-0.537 0-1.040 0.151-1.467 0.412l0.012-0.007c-0.329 0.201-0.603 0.457-0.818 0.759l-0.006 0.008c-0.091 0.096-7.010 8.504-7.086 8.612-0.253 0.265-0.454 0.583-0.584 0.935l-0.006 0.019c-0.103 0.274-0.162 0.591-0.162 0.922 0 0.461 0.116 0.896 0.319 1.276l-0.007-0.014c0.176 0.334 0.42 0.629 0.717 0.866 0.476 0.38 1.086 0.609 1.75 0.609 0.537 0 1.040-0.151 1.467-0.412l-0.012 0.007c0.329-0.201 0.603-0.457 0.818-0.759l0.006-0.008c0.091-0.096 7.010-8.504 7.086-8.612z"></path>
</symbol>

<symbol id="icon-facebook" viewBox="0 0 32 32">
 <path style="fill: var(--color3, green)" d="M18.667 12.4v3.867h3.467c0.267 0 0.4 0.267 0.4 0.533l-0.533 2.533c0 0.133-0.267 0.267-0.4 0.267h-2.933v9.733h-4v-9.6h-2.267c-0.267 0-0.4-0.133-0.4-0.4v-2.533c0-0.267 0.133-0.4 0.4-0.4h2.267v-4.4c0-2.267 1.733-4 4-4h3.6c0.267 0 0.4 0.133 0.4 0.4v3.2c0 0.267-0.133 0.4-0.4 0.4h-3.2c-0.267 0-0.4 0.133-0.4 0.4z"></path>
 <path stroke-width="2" stroke-miterlimit="4" stroke-linecap="round" stroke-linejoin="round"  d="M20 29.333h-8c-6.667 0-9.333-2.667-9.333-9.333v-8c0-6.667 2.667-9.333 9.333-9.333h8c6.667 0 9.333 2.667 9.333 9.333v8c0 6.667-2.667 9.333-9.333 9.333z"></path>
</symbol>

<symbol id="icon-facebook-footer" viewBox="0 0 32 32">
 <path d="M18.667 12.4v3.867h3.467c0.267 0 0.4 0.267 0.4 0.533l-0.533 2.533c0 0.133-0.267 0.267-0.4 0.267h-2.933v9.733h-4v-9.6h-2.267c-0.267 0-0.4-0.133-0.4-0.4v-2.533c0-0.267 0.133-0.4 0.4-0.4h2.267v-4.4c0-2.267 1.733-4 4-4h3.6c0.267 0 0.4 0.133 0.4 0.4v3.2c0 0.267-0.133 0.4-0.4 0.4h-3.2c-0.267 0-0.4 0.133-0.4 0.4z"></path>
 <path stroke-width="2" stroke-miterlimit="4" stroke-linecap="round" stroke-linejoin="round"  d="M20 29.333h-8c-6.667 0-9.333-2.667-9.333-9.333v-8c0-6.667 2.667-9.333 9.333-9.333h8c6.667 0 9.333 2.667 9.333 9.333v8c0 6.667-2.667 9.333-9.333 9.333z"></path>
</symbol>

<symbol id="icon-close" viewBox="0 0 32 32">
 <path stroke-width="2.4" stroke-miterlimit="4" stroke-linecap="round" stroke-linejoin="round" d="M9.333 9.333l13.334 13.334M9.334 22.667l13.333-13.334"></path>
</symbol>

<symbol id="icon-call" viewBox="0 0 32 32">
 <path stroke-width="2" stroke-miterlimit="10" stroke-linecap="butt" stroke-linejoin="miter" d="M29.293 24.44c0 0.48-0.107 0.973-0.333 1.453s-0.52 0.933-0.907 1.36c-0.653 0.72-1.373 1.24-2.187 1.573-0.8 0.333-1.667 0.507-2.6 0.507-1.36 0-2.813-0.32-4.347-0.973s-3.067-1.533-4.587-2.64c-1.617-1.19-3.045-2.414-4.376-3.736l0.002 0.002c-1.316-1.324-2.536-2.747-3.647-4.255l-0.073-0.105c-1.093-1.52-1.973-3.040-2.613-4.547-0.64-1.52-0.96-2.973-0.96-4.36 0-0.907 0.16-1.773 0.48-2.573 0.32-0.813 0.827-1.56 1.533-2.227 0.853-0.84 1.787-1.253 2.773-1.253 0.373 0 0.747 0.080 1.080 0.24 0.347 0.16 0.653 0.4 0.893 0.747l3.093 4.36c0.24 0.333 0.413 0.64 0.533 0.933 0.12 0.28 0.187 0.56 0.187 0.813 0 0.32-0.093 0.64-0.28 0.947-0.173 0.307-0.427 0.627-0.747 0.947l-1.013 1.053c-0.147 0.147-0.213 0.32-0.213 0.533 0 0.107 0.013 0.2 0.040 0.307 0.040 0.107 0.080 0.187 0.107 0.267 0.24 0.44 0.653 1.013 1.24 1.707 0.6 0.693 1.24 1.4 1.933 2.107 0.72 0.707 1.413 1.36 2.12 1.96 0.693 0.587 1.267 0.987 1.72 1.227 0.067 0.027 0.147 0.067 0.24 0.107 0.107 0.040 0.213 0.053 0.333 0.053 0.227 0 0.4-0.080 0.547-0.227l1.013-1c0.333-0.333 0.653-0.587 0.96-0.747 0.307-0.187 0.613-0.28 0.947-0.28 0.253 0 0.52 0.053 0.813 0.173s0.6 0.293 0.933 0.52l4.413 3.133c0.347 0.24 0.587 0.52 0.733 0.853 0.133 0.333 0.213 0.667 0.213 1.040z"></path>
</symbol>

<symbol id="icon-biggest-arrow" viewBox="0 0 32 32">
 <path stroke-width="1.3333" stroke-miterlimit="10" stroke-linecap="round" stroke-linejoin="round" d="M12.759 7.905l-8.092 8.093 8.093 8.093M27.332 15.999h-22.44"></path>
</symbol>

<symbol id="icon-big-arrow" viewBox="0 0 32 32">
 <path stroke-width="1.7143" stroke-miterlimit="10" stroke-linecap="round" stroke-linejoin="round" d="M12.569 7.985h11.445v11.446M7.987 24.011l15.867-15.865"></path>
</symbol>

<symbol id="icon-arrow" viewBox="0 0 30 32">
 <path stroke-width="1.8824" stroke-miterlimit="10" stroke-linecap="round" stroke-linejoin="round" d="M18.108 8.382l7.618 7.618-7.618 7.616M4.392 16h21.12"></path>
</symbol>

</defs>
</svg>
